<?xml version="1.0" encoding="iso-8859-1"?>
<!-- Generator: Adobe Illustrator 24.1.0, SVG Export Plug-In . SVG Version: 6.00 Build 0)  -->
<svg version="1.1" id="Calque_1" xmlns="http://www.w3.org/2000/svg" xmlns:xlink="http://www.w3.org/1999/xlink" x="0px" y="0px"
	 width="288px" height="288px" viewBox="0 0 288 288" enable-background="new 0 0 288 288" xml:space="preserve" fill="#dcff40">
<path d="M94.905,115.466c-9.05-20.672-4.239-38.893,12.393-48.042c17.393-9.568,34.904-3.479,48.218,16.766
	c19.874-15.089,37.803-15.461,51.146-1.062c12.909,13.932,11.877,32.223-3.137,49.624c10.891,4.99,18.309,13.023,20.72,24.852
	c1.654,8.118,0.55,15.999-3.598,23.337c-9.295,16.439-25.687,20.739-48.002,12.396c-0.463,2.132-0.848,4.251-1.387,6.331
	c-4.474,17.254-21.48,28.043-38.965,24.746c-17.247-3.252-29.116-19.204-27.148-36.78c0.414-3.698,0.549-5.492-4.378-4.761
	c-17.382,2.58-33.704-9.618-37.151-27.228c-3.363-17.186,7.837-34.647,24.944-38.852C90.546,116.305,92.564,115.952,94.905,115.466z
	 M146.675,117.574c-13.431-0.089-24.243,10.476-24.425,23.867c-0.179,13.163,10.726,24.285,23.984,24.463
	c13.213,0.177,24.23-10.684,24.363-24.018C170.731,128.486,160.082,117.663,146.675,117.574z"/>
</svg>
